<svg width="61" height="230" viewBox="0 0 61 230" fill="none" xmlns="http://www.w3.org/2000/svg">
<path d="M30.5 158.2L29.1085 160.47L28.2736 159.335L28.5519 158.2H30.5Z" fill="#A19681"/>
<path d="M33.8396 161.038L33.0047 160.47L33.5613 159.193L34.9528 160.187L33.8396 161.038Z" fill="#A19681"/>
<path d="M30.7783 101.038V102.017H31.3349V101.449L30.7783 101.038Z" fill="#A19681"/>
<path fill-rule="evenodd" clip-rule="evenodd" d="M50.5377 90.9503L46.9198 79.3164L46.5804 77.7399L45.8066 75.3438L40.2406 76.4788L33.5613 77.3301H26.3255L19.3679 76.4788L15.1123 75.3941L12.7682 84.3023L11.5755 90.3828L9.65303 94.7554L13.8019 96.3417L16.3066 100.03L17.9764 103.436L20.2028 105.706H24.0991L27.1604 109.678L30.2217 110.813L33.8396 109.678L37.4576 105.706H41.6321L43.8585 102.301L45.8066 97.7604L49.7028 95.4904L51.7643 94.7022L50.5377 90.9503ZM19.0896 99.1792L17.4198 94.6391V94.3554L16.3066 92.9366L17.4198 90.9503L18.2547 86.9777L21.0377 83.8564L23.5425 81.5864L27.1604 79.6001L29.6651 79.0326L30.2217 77.8976L31.3349 79.0326H33.0047L35.7877 80.7351L39.4057 83.0052L42.7453 86.9777L43.8585 90.9503L44.6934 93.5041L43.3019 94.3554L42.7453 97.7604L41.0755 100.598L33.8396 106.273H31.3349L30.2217 107.124L29.6651 106.273H27.1604L22.7075 102.868L19.0896 99.1792Z" fill="#CCB388"/>
<path d="M2.66981 118.191L1 131.527V145.431H5.73113L6.00943 129.825L8.51415 115.637L12.1264 101.188L11.5755 100.314L8.12661 98.6913L6.56604 102.868L2.66981 118.191Z" fill="#426317"/>
<path d="M16.5849 107.976L14.0802 104.287L12.1264 101.188L8.51415 115.637L6.00943 129.825L5.73113 145.431H16.5849V135.5C16.5849 135.5 16.8757 129.789 17.1415 126.136C17.416 122.364 17.9764 116.488 17.9764 116.488L19.0622 109.016L16.5849 107.976Z" fill="#87A863"/>
<path d="M40.2406 76.4788L45.8066 75.3438L45.8813 74.4925L45.25 71.9387L40.5189 73.0737L40.397 73.085L34.3962 73.6413L27.717 74.2088L21.0377 73.0737L16.0915 71.6729L15.1123 75.3941L19.3679 76.4788L26.3255 77.3301H33.5613L40.2406 76.4788Z" fill="#E9D18E"/>
<path d="M14.0802 104.287L16.5849 107.976L19.0622 109.016L21.316 109.962L25.4906 113.272L26.3255 113.934L31.8915 114.786L36.066 112.799L39.1274 109.962L43.8585 108.827L45.3852 107.4L47.1981 105.706L48.5896 101.165L53.0842 98.7394L51.7643 94.7022L49.7028 95.4904L45.8066 97.7604L43.8585 102.301L41.6321 105.706H37.4576L33.8396 109.678L30.2217 110.813L27.1604 109.678L24.0991 105.706H20.2028L17.9764 103.436L16.3066 100.03L13.8019 96.3417L9.65303 94.7554L9.28118 95.6011L8.12661 98.6913L11.5755 100.314L12.1264 101.188L14.0802 104.287Z" fill="#E9D18E"/>
<path fill-rule="evenodd" clip-rule="evenodd" d="M54.434 102.868L58.6085 118.191L60 131.527V145.431H50.816V139.472L50.2594 132.095L49.4245 125.001L48.5896 118.758L47.7547 112.232L45.3852 107.4L47.1981 105.706L48.5896 101.165L53.0842 98.7394L54.434 102.868ZM21.5943 145.431H16.5849V135.5C16.5849 135.5 16.8757 129.789 17.1415 126.136C17.416 122.364 17.9764 116.488 17.9764 116.488L19.0622 109.016L21.316 109.962L25.4906 113.272L23.5425 117.907L22.7075 126.136L21.5943 135.5V145.431Z" fill="#354F21"/>
<path d="M31.8915 114.786L26.3255 113.934L25.4906 113.272L23.5425 117.907L22.7075 126.136L21.5943 135.5V145.431H50.816V139.472L50.2594 132.095L49.4245 125.001L48.5896 118.758L47.7547 112.232L45.3852 107.4L43.8585 108.827L39.1274 109.962L36.066 112.799L31.8915 114.786Z" fill="#1F3A0C"/>
<path d="M25.7689 94.6391L24.934 96.3417L27.1604 98.3279L29.1085 99.1792H31.8915L34.3962 97.7604L36.066 96.0579H35.5094L34.9528 94.3554L32.7264 94.0716V95.7741L30.2217 97.7604L28.2736 96.3417L27.717 93.5041L25.7689 94.6391Z" fill="#21522C"/>
<path d="M27.1604 86.9777L24.934 89.2478L26.0472 89.5315L27.1604 88.6803L29.1085 89.2478L30.2217 90.099L31.3349 89.2478H34.3962H36.066L34.3962 87.5453L32.7264 86.1265H29.6651L27.1604 86.9777Z" fill="#21522C"/>
<path d="M43.3019 94.3554L44.6934 93.5041L43.8585 90.9503H42.7453V89.5315L41.6321 88.3965H39.4057L38.5708 89.5315H38.0142L38.8491 90.9503L39.1274 92.0853L38.5708 92.3691L37.7359 93.5041V95.1357L38.5708 95.7741C38.5708 95.7741 40.0751 96.564 40.7972 96.0579L41.5277 94.5682L41.6321 94.3554H43.3019Z" fill="#C3B574"/>
<path fill-rule="evenodd" clip-rule="evenodd" d="M36.066 96.0579L34.3962 97.7604L31.8915 99.1792H29.1085L27.1604 98.3279L24.934 96.3417L24.4121 95.7032L23.5425 94.6391L23.2443 94.8925L21.8726 96.0579H19.6462L20.7594 98.8955L22.7075 101.165L26.3255 103.436H34.9528L38.5708 101.165L40.7972 98.0442L41.5068 94.6675C41.4429 94.9498 41.2276 95.7562 40.7972 96.0579C40.0751 96.564 38.5708 95.7741 38.5708 95.7741L37.7359 95.1357L37.4576 94.9229L36.6226 95.7741L36.066 96.0579ZM30.7783 101.038V102.017H31.3349V101.449L30.7783 101.038Z" fill="#FDFFFF"/>
<path fill-rule="evenodd" clip-rule="evenodd" d="M42.7453 90.9503H43.8585L42.7453 86.9777L39.4057 83.0052L35.7877 80.7351L33.0047 79.0326H31.3349L30.2217 77.8976L29.6651 79.0326L27.1604 79.6001L23.5425 81.5864L21.0377 83.8564L18.2547 86.9777L17.4198 90.9503L16.3066 92.9366L17.4198 94.3554L19.6462 94.0716V96.0579H21.8726L23.2443 94.8925L23.5425 94.6391L24.4121 95.7032L24.934 96.3417L25.7689 94.6391L27.717 93.5041L28.2736 96.3417L30.2217 97.7604L32.7264 95.7741V94.0716L34.9528 94.3554L35.5094 96.0579H36.066L36.6226 95.7741L37.4576 94.9229L37.7359 95.1357V93.5041L38.5708 92.3691L39.1274 92.0853L38.8491 90.9503L38.0142 89.5315H36.9009L36.066 89.2478H34.3962H31.3349L30.2217 90.099L29.1085 89.2478L27.1604 88.6803L26.0472 89.5315L24.934 89.2478L24.6557 89.4685L22.4292 88.964L21.5943 88.3965L19.1205 88.901L19.0896 88.9073L19.6462 87.7226L21.5943 84.9915L24.934 82.7214L30.2217 81.5864L34.1179 82.1539L38.0142 83.8564L40.2406 86.1265L41.6321 88.3965L42.7453 89.5315V90.9503ZM41.5277 94.5682C41.5277 94.5682 41.5269 94.5724 41.5254 94.5805C41.5241 94.5867 41.5225 94.5951 41.5203 94.6056C41.517 94.6217 41.5125 94.6425 41.5068 94.6675L41.5203 94.6056L41.5254 94.5805L41.5277 94.5682Z" fill="#C3B574"/>
<path d="M24.934 89.2478L27.1604 86.9777L29.6651 86.1265H32.7264L34.3962 87.5453L36.066 89.2478L36.9009 89.5315H38.0142H38.5708L39.4057 88.3965H41.6321L40.2406 86.1265L38.0142 83.8564L34.1179 82.1539L30.2217 81.5864L24.934 82.7214L21.5943 84.9915L19.6462 87.7226L19.0896 88.9073L19.1205 88.901L21.5943 88.3965L22.4292 88.964L24.6557 89.4685L24.934 89.2478Z" fill="#FDFFFF"/>
<path d="M1 145.431V151.39H7.95755L10.184 150.539L13.2453 149.404L17.9764 148.269L23.2642 147.418L27.4387 146.85H36.3443L40.5189 147.418L45.25 148.269L49.7028 149.404L53.0425 151.39H60V145.431H50.816H21.5943H16.5849H5.73113H1Z" fill="#526A2F"/>
<path d="M1 151.39V155.646H9.34906L13.2453 153.944L17.9764 152.809L23.2642 151.958L33.8396 151.39L39.4057 151.958L45.25 152.809L49.7028 154.511L52.2076 155.93L60 155.646V151.39H53.0425L49.7028 149.404L45.25 148.269L40.5189 147.418L36.3443 146.85H27.4387L23.2642 147.418L17.9764 148.269L13.2453 149.404L10.184 150.539L7.95755 151.39H1Z" fill="#BEB677"/>
<path fill-rule="evenodd" clip-rule="evenodd" d="M40.5189 172.955H41.0755V174.658L44.4151 174.374V173.239L43.8585 170.969H44.4151L46.0849 174.091H51.6509L53.0425 172.388H54.1557L55.2689 173.807H56.6604L57.7736 172.388V170.969L56.6604 171.253V172.388H55.8255L55.2689 169.834H57.4953V166.145L56.3821 165.01H45.5283L45.25 166.429L44.6934 167.28L44.4151 165.01H41.0755L40.7972 168.699H39.1274L38.2925 166.997L36.6226 167.848L36.3443 170.969L38.5708 172.955L40.5189 171.253V172.955ZM49.4245 170.685L50.2594 172.388L51.6509 171.253V168.699L51.3726 166.997L50.2594 166.713L49.7028 168.132L49.4245 170.685Z" fill="#ECECEC"/>
<path d="M11.2972 157.916L10.184 159.335L8.79245 157.916H6.00943L4.06132 159.903L3.50472 164.443V172.955L4.89623 176.644L8 178L7.40094 184.306L9 182L11.5 185L14.5 182L16.0283 184.306L16.8632 183.454V184.306H20.2028V182.036L20.7594 184.306H21.8726L22.4292 181.468V184.306H26.8821V180.049H27.9953V184.589H33.0047V184.022H33.5613V184.589H37.7359L37.4576 181.752H38.5708V184.873H40.5189L40.7972 183.738L41.9104 184.589H43.8585L44.6934 183.738V183.171L43.8585 182.319L43.3019 183.454H42.1887V180.617L42.7453 179.482L43.3019 180.333L44.6934 180.901V178.347H42.1887L41.0755 179.482L40.5189 179.766V178.347H35.5094L35.2311 179.766H34.1179L33.283 178.631H31.3349L30.2217 180.049L29.9434 178.631H25.2123L22.9858 178.347L21.5943 181.184L20.4811 178.631H13.8019V176.077L8 178L11.5 173.5L9.34906 168.699L15.1934 169.267L13.2453 171.82L17.1415 174.374L19.0896 172.672L19.6462 172.388L21.8726 174.091H24.6557L26.3255 172.672V171.82H25.2123L24.0991 172.955L22.4292 172.672L22.1509 170.402L26.6038 170.118L26.8821 168.699H27.9953L28.5519 166.713L29.1085 166.997V172.955H28.2736V174.374H32.1698V172.955H31.3349V167.28H32.1698L33.0047 169.267H33.8396L34.1179 172.104L36.066 174.091L39.1274 174.374L40.5189 172.955V171.253L38.5708 172.955L36.3443 170.969L36.6226 167.848L38.2925 166.997L39.1274 168.699H40.7972L41.0755 165.01L36.066 165.294L34.6745 167.28L33.8396 165.294H26.8821L26.6038 166.997L24.6557 165.294L21.316 165.578L19.3679 167.28L17.9764 165.294H12.967L11.8538 165.578L10.7406 165.01L9.34906 164.443L7.40094 166.713L6.84434 169.267L7.40094 172.104L8.51415 174.091H7.40094L6.56604 175.226L5.45283 173.239L5.17453 170.118V163.875L6.00943 159.903L7.67925 159.619L8.79245 161.038L9.34906 164.443L10.7406 165.01L11.2972 161.605L11.8538 159.051L11.2972 157.916Z" fill="#F9F8F4"/>
<path d="M44.6934 183.738L44.9717 184.589H46.9198V183.738L47.1981 182.887L48.033 184.589H51.6509L52.4859 183.454H53.0425L53.8774 184.306H55.2689L55.8255 183.171V182.036H54.9906V182.887H54.1557V181.468H55.8255V179.198L54.9906 178.063L53.0425 178.631L52.4859 179.198L51.3726 178.063H49.7028L47.4764 178.347V179.766H46.6415V178.347H44.6934V180.901L43.3019 180.333L42.7453 179.482L42.1887 180.617V183.454H43.3019L43.8585 182.319L44.6934 183.171V183.738Z" fill="#ECECEC"/>
<path fill-rule="evenodd" clip-rule="evenodd" d="M1 155.646V179.766H1.5566L3.50472 180.049L4.06132 182.887V186.292L6.00943 186.859L7.95755 189.13L9.34906 191.967H10.184L11.8538 192.535V191.4L13.8019 191.967H16.0283L17.9764 193.386H20.2028L20.7594 191.967H23.2642V193.386H25.4906L26.0472 191.967H27.9953L29.1085 193.386L31.6132 191.967L32.1698 193.386H33.0047L35.5094 191.967L36.3443 193.386H38.2925L38.8491 192.535H41.6321V193.386L44.1368 193.953L45.8066 191.967L48.033 192.535L49.7028 191.4L50.816 191.967H53.0425L53.5991 189.13L55.2689 186.859L57.4953 186.008L58.0519 182.036L58.8868 179.766H60V155.646L52.2076 155.93L49.7028 154.511L45.25 152.809L39.4057 151.958L33.8396 151.39L23.2642 151.958L17.9764 152.809L13.2453 153.944L9.34906 155.646H1ZM10.184 159.335L11.2972 157.916L11.8538 159.051L11.2972 161.605L10.7406 165.01L11.8538 165.578L12.967 165.294H17.9764L19.3679 167.28L21.316 165.578L24.6557 165.294L26.6038 166.997L26.8821 165.294H33.8396L34.6745 167.28L36.066 165.294L41.0755 165.01H44.4151L44.6934 167.28L45.25 166.429L45.5283 165.01H56.3821L57.4953 166.145V169.834H55.2689L55.8255 172.388H56.6604V171.253L57.7736 170.969V172.388L56.6604 173.807H55.2689L54.1557 172.388H53.0425L51.6509 174.091H46.0849L44.4151 170.969H43.8585L44.4151 173.239V174.374L41.0755 174.658V172.955H40.5189L39.1274 174.374L36.066 174.091L34.1179 172.104L33.8396 169.267H33.0047L32.1698 167.28H31.3349V172.955H32.1698V174.374H28.2736V172.955H29.1085V166.997L28.5519 166.713L27.9953 168.699H26.8821L26.6038 170.118L22.1509 170.402L22.4292 172.672L24.0991 172.955L25.2123 171.82H26.3255V172.672L24.6557 174.091H21.8726L19.6462 172.388L19.0896 172.672L17.1415 174.374L13.2453 171.82L15.1934 169.267L9.34906 168.699L11.5 173.5L8 178L13.8019 176.077V178.631H20.4811L21.5943 181.184L22.9858 178.347L25.2123 178.631H29.9434L30.2217 180.049L31.3349 178.631H33.283L34.1179 179.766H35.2311L35.5094 178.347H40.5189V179.766L41.0755 179.482L42.1887 178.347H44.6934H46.6415V179.766H47.4764V178.347L49.7028 178.063H51.3726L52.4859 179.198L53.0425 178.631L54.9906 178.063L55.8255 179.198V181.468H54.1557V182.887H54.9906V182.036H55.8255V183.171L55.2689 184.306H53.8774L53.0425 183.454H52.4859L51.6509 184.589H48.033L47.1981 182.887L46.9198 183.738V184.589H44.9717L44.6934 183.738L43.8585 184.589H41.9104L40.7972 183.738L40.5189 184.873H38.5708V181.752H37.4576L37.7359 184.589H33.5613V184.022H33.0047V184.589H27.9953V180.049H26.8821V184.306H22.4292V181.468L21.8726 184.306H20.7594L20.2028 182.036V184.306H16.8632V183.454L16.0283 184.306L14.5 182L11.5 185L9 182L7.40094 184.306L8 178L4.89623 176.644L3.50472 172.955V164.443L4.06132 159.903L6.00943 157.916H8.79245L10.184 159.335ZM30.5 158.2L29.1085 160.47L28.2736 159.335L28.5519 158.2H30.5ZM33.8396 161.038L33.0047 160.47L33.5613 159.193L34.9528 160.187L33.8396 161.038Z" fill="#9B8458"/>
<path d="M1 179.766V192.818L2.66981 193.386L3.78302 196.223L4.89623 197.075L7.40094 196.223L9.34906 197.075L10.184 197.926H13.8019L14.6368 199.061L15.1934 197.926H16.0283L16.8632 199.061L18.8113 199.628V198.493L21.316 199.061L24.0991 198.493L24.6557 199.628H27.4387L28.5519 198.493L30.2217 201.898L33.0047 199.628H36.9009L37.7359 198.493L39.4057 199.628L42.1887 198.493L42.7453 199.628L44.1368 199.061L45.25 197.926H46.3632V199.061H47.4764L47.7547 197.642H49.7028L51.3726 198.493L52.4859 197.075L54.7123 196.223L56.1038 197.075H57.4953L58.8868 194.521L60 193.953V179.766H58.8868L58.0519 182.036L57.4953 186.008L55.2689 186.859L53.5991 189.13L53.0425 191.967H50.816L49.7028 191.4L48.033 192.535L45.8066 191.967L44.1368 193.953L41.6321 193.386V192.535H38.8491L38.2925 193.386H36.3443L35.5094 191.967L33.0047 193.386H32.1698L31.6132 191.967L29.1085 193.386L27.9953 191.967H26.0472L25.4906 193.386H23.2642V191.967H20.7594L20.2028 193.386H17.9764L16.0283 191.967H13.8019L11.8538 191.4V192.535L10.184 191.967H9.34906L7.95755 189.13L6.00943 186.859L4.06132 186.292V182.887L3.50472 180.049L1.5566 179.766H1Z" fill="#E7E3C6"/>
<path d="M1 192.818V198.493L9.34906 199.628L13.2453 201.898L17.9764 203.317L23.2642 204.169L29.1085 204.736H34.6745L40.5189 204.169L45.25 203.317L48.5896 201.898L52.4859 199.628L56.9387 199.061L60 198.493V193.953L58.8868 194.521L57.4953 197.075H56.1038L54.7123 196.223L52.4859 197.075L51.3726 198.493L49.7028 197.642H47.7547L47.4764 199.061H46.3632V197.926H45.25L44.1368 199.061L42.7453 199.628L42.1887 198.493L39.4057 199.628L37.7359 198.493L36.9009 199.628H33.0047L30.2217 201.898L28.5519 198.493L27.4387 199.628H24.6557L24.0991 198.493L21.316 199.061L18.8113 198.493V199.628L16.8632 199.061L16.0283 197.926H15.1934L14.6368 199.061L13.8019 197.926H10.184L9.34906 197.075L7.40094 196.223L4.89623 197.075L3.78302 196.223L2.66981 193.386L1 192.818Z" fill="#9B8458"/>
<path fill-rule="evenodd" clip-rule="evenodd" d="M1 198.493V202.75V207.857L10.7406 209.276L19.9245 209.844H40.2406L44.9717 209.458L47.1981 209.276L55.2689 208.425L60 207.857V202.75V198.493L56.9387 199.061L52.4859 199.628L48.5896 201.898L45.25 203.317L40.5189 204.169L34.6745 204.736H29.1085L23.2642 204.169L17.9764 203.317L13.2453 201.898L9.34906 199.628L1 198.493ZM8.12661 98.6913L7.95755 98.6117L9.28118 95.6011L8.12661 98.6913ZM12.7682 84.3023L11.5755 90.3828L9.65303 94.7554L9.28118 95.6011L11.0189 90.9503L12.7682 84.3023ZM12.7682 84.3023L12.967 83.2889L14.9151 75.3438L15.1123 75.3941L12.7682 84.3023ZM51.7643 94.7022L50.5377 90.9503L46.9198 79.3164L46.5804 77.7399L53.3208 98.6117L53.0842 98.7394L51.7643 94.7022ZM45.8813 74.4925L46.5804 77.7399L45.8066 75.3438L45.8813 74.4925ZM45.8813 74.4925L45.25 71.9387L40.5189 73.0737L40.397 73.085L34.3962 73.6413L27.717 74.2088L21.0377 73.0737L16.0915 71.6729L17.1415 67.6824L19.0896 54.9134L20.7594 39.3069V26.8217L17.1415 19.1603L19.0896 8.66138V2.41877L21.8726 1H38.0142L40.5189 2.41877V7.52636L41.6321 8.66138V18.0253L40.5189 22.2816V39.3069L41.6321 54.9134L44.4151 67.6824L45.8813 74.4925ZM19.0896 99.1792L17.4198 94.6391V94.3554L19.6462 94.0716V96.0579L20.7594 98.8955L22.7075 101.165L26.3255 103.436H34.9528L38.5708 101.165L40.7972 98.0442L41.5068 94.6675C41.5125 94.6425 41.517 94.6217 41.5203 94.6056L41.5068 94.6675C41.4429 94.9498 41.2276 95.7562 40.7972 96.0579L41.5277 94.5682L41.6321 94.3554H43.3019L42.7453 97.7604L41.0755 100.598L33.8396 106.273H31.3349L30.2217 107.124L29.6651 106.273H27.1604L22.7075 102.868L19.0896 99.1792ZM30.7783 102.017V101.038L31.3349 101.449V102.017H30.7783ZM7.40094 166.713L9.34906 164.443L8.79245 161.038L7.67925 159.619L6.00943 159.903L5.17453 163.875V170.118L5.45283 173.239L6.56604 175.226L7.40094 174.091H8.51415L7.40094 172.104L6.84434 169.267L7.40094 166.713ZM49.4245 170.685L50.2594 172.388L51.6509 171.253V168.699L51.3726 166.997L50.2594 166.713L49.7028 168.132L49.4245 170.685ZM28.2736 159.335L28.5519 158.2H30.5L29.1085 160.47L28.2736 159.335ZM33.8396 161.038L33.0047 160.47L33.5613 159.193L34.9528 160.187L33.8396 161.038Z" fill="#9B8458"/>
<path d="M58.6085 222.329L60 217.221V215.802V207.857L55.2689 208.425L47.1981 209.276L44.9717 209.458L40.2406 209.844H19.9245L10.7406 209.276L1 207.857V219.208L2.66981 222.329L5.17453 226.018L11.8538 227.436L20.7594 228.571H42.1887L49.4245 227.436L54.434 226.018L58.6085 222.329Z" fill="#65884C"/>
<path d="M60 215.802L51.9292 216.937L46.9198 215.802L39.4057 212.965H22.7075L15.4717 214.951L9.90566 218.356L2.11321 216.937H1V219.208L5.17453 226.018L20.7594 228.571H42.1887L49.4245 227.436L54.434 226.018L58.6085 222.329L60 217.221V215.802Z" fill="#1F3A0C"/>
<path d="M60 217.221L58.6085 222.329L54.434 226.018L49.4245 227.436L42.1887 228.571H20.7594M60 217.221V207.857M60 217.221V215.802M20.7594 228.571L11.8538 227.436L5.17453 226.018M20.7594 228.571L5.17453 226.018M5.17453 226.018L2.66981 222.329L1 219.208M5.17453 226.018L1 219.208M1 219.208V207.857M1 219.208V216.937M1 207.857L10.7406 209.276L19.9245 209.844H40.2406L44.9717 209.458M1 207.857V202.75M55.2689 208.425L47.1981 209.276L44.9717 209.458M55.2689 208.425L60 207.857M55.2689 208.425L44.9717 209.458M60 207.857V202.75M60 207.857V215.802M60 145.431V131.527L58.6085 118.191L54.434 102.868L53.0842 98.7394M60 145.431V202.75M60 145.431H50.816M60 145.431V151.39M1 145.431V131.527L2.66981 118.191L6.56604 102.868L8.12661 98.6913M1 145.431V202.75M1 145.431H5.73113M1 145.431H21.5943M1 145.431V151.39M1 202.75L9.34906 203.885L13.8019 206.439L20.7594 207.857L28.2736 208.709H32.7264L38.5708 208.425L44.4151 207.29M1 202.75V151.39M1 202.75V155.646M1 202.75V179.766M1 202.75V192.818M1 202.75V198.493M44.4151 207.29L49.7028 205.587L49.7657 205.552M44.4151 207.29L49.7657 205.552M60 202.75L56.9387 203.601L52.7642 203.885L49.7657 205.552M60 202.75V151.39M60 202.75V155.646M60 202.75V179.766M60 202.75V193.953M60 202.75V198.493M1 198.493L9.34906 199.628L13.2453 201.898L17.9764 203.317L23.2642 204.169L29.1085 204.736H34.6745L40.5189 204.169L45.25 203.317L48.5896 201.898L52.4859 199.628L56.9387 199.061M1 198.493V192.818M56.9387 199.061L60 198.493M56.9387 199.061L59.7217 198.493H60M60 198.493V193.953M1 192.818L2.66981 193.386L3.78302 196.223L4.89623 197.075L7.40094 196.223L9.34906 197.075L10.184 197.926H13.8019L14.6368 199.061L15.1934 197.926H16.0283L16.8632 199.061L18.8113 199.628V198.493L21.316 199.061L24.0991 198.493L24.6557 199.628H27.4387L28.5519 198.493L30.2217 201.898L33.0047 199.628H36.9009L37.7359 198.493L39.4057 199.628L42.1887 198.493L42.7453 199.628L44.1368 199.061L45.25 197.926H46.3632V199.061H47.4764L47.7547 197.642H49.7028L51.3726 198.493L52.4859 197.075L54.7123 196.223L56.1038 197.075H57.4953L58.8868 194.521L60 193.953M1 192.818V179.766M60 193.953V179.766M60 179.766H58.8868L58.0519 182.036L57.4953 186.008L55.2689 186.859L53.5991 189.13L53.0425 191.967H50.816L49.7028 191.4L48.033 192.535L45.8066 191.967L44.1368 193.953L41.6321 193.386V192.535H38.8491L38.2925 193.386H36.3443L35.5094 191.967L33.0047 193.386H32.1698L31.6132 191.967L29.1085 193.386L27.9953 191.967H26.0472L25.4906 193.386H23.2642V191.967H20.7594L20.2028 193.386H17.9764L16.0283 191.967H13.8019L11.8538 191.4V192.535L10.184 191.967H9.34906L7.95755 189.13L6.00943 186.859L4.06132 186.292V182.887L3.50472 180.049L1.5566 179.766H1M60 179.766V155.646M1 179.766V155.646M1 155.646H9.34906L13.2453 153.944L17.9764 152.809L23.2642 151.958L33.8396 151.39L39.4057 151.958L45.25 152.809L49.7028 154.511L52.2076 155.93L60 155.646M1 155.646V151.39M60 155.646V151.39M60 151.39H53.0425L49.7028 149.404L45.25 148.269L40.5189 147.418L36.3443 146.85H27.4387L23.2642 147.418L17.9764 148.269L13.2453 149.404L10.184 150.539L7.95755 151.39H1M8 178L4.89623 176.644L3.50472 172.955V164.443L4.06132 159.903L6.00943 157.916H8.79245L10.184 159.335L11.2972 157.916L11.8538 159.051L11.2972 161.605L10.7406 165.01M8 178L13.8019 176.077V178.631H20.4811L21.5943 181.184L22.9858 178.347L25.2123 178.631H29.9434L30.2217 180.049L31.3349 178.631H33.283L34.1179 179.766H35.2311L35.5094 178.347H40.5189V179.766L41.0755 179.482L42.1887 178.347H44.6934M8 178L7.40094 184.306L9 182L11.5 185L14.5 182L16.0283 184.306L16.8632 183.454V184.306H20.2028V182.036L20.7594 184.306H21.8726L22.4292 181.468V184.306H26.8821V180.049H27.9953V184.589H33.0047V184.022H33.5613V184.589H37.7359L37.4576 181.752H38.5708V184.873H40.5189L40.7972 183.738L41.9104 184.589H43.8585L44.6934 183.738M8 178L11.5 173.5L9.34906 168.699L15.1934 169.267L13.2453 171.82L17.1415 174.374L19.0896 172.672L19.6462 172.388L21.8726 174.091H24.6557L26.3255 172.672V171.82H25.2123L24.0991 172.955L22.4292 172.672L22.1509 170.402L26.6038 170.118L26.8821 168.699H27.9953L28.5519 166.713L29.1085 166.997V172.955H28.2736V174.374H32.1698V172.955H31.3349V167.28H32.1698L33.0047 169.267H33.8396L34.1179 172.104L36.066 174.091L39.1274 174.374L40.5189 172.955M44.6934 183.738L44.9717 184.589H46.9198V183.738L47.1981 182.887L48.033 184.589H51.6509L52.4859 183.454H53.0425L53.8774 184.306H55.2689L55.8255 183.171V182.036H54.9906V182.887H54.1557V181.468H55.8255V179.198L54.9906 178.063L53.0425 178.631L52.4859 179.198L51.3726 178.063H49.7028L47.4764 178.347V179.766H46.6415V178.347H44.6934M44.6934 183.738V183.171L43.8585 182.319L43.3019 183.454H42.1887V180.617L42.7453 179.482L43.3019 180.333L44.6934 180.901V178.347M40.5189 172.955H41.0755V174.658L44.4151 174.374V173.239L43.8585 170.969H44.4151L46.0849 174.091H51.6509L53.0425 172.388H54.1557L55.2689 173.807H56.6604L57.7736 172.388V170.969L56.6604 171.253V172.388H55.8255L55.2689 169.834H57.4953V166.145L56.3821 165.01H45.5283L45.25 166.429L44.6934 167.28L44.4151 165.01H41.0755M40.5189 172.955V171.253L38.5708 172.955L36.3443 170.969L36.6226 167.848L38.2925 166.997L39.1274 168.699H40.7972L41.0755 165.01M41.0755 165.01L36.066 165.294L34.6745 167.28L33.8396 165.294H26.8821L26.6038 166.997L24.6557 165.294L21.316 165.578L19.3679 167.28L17.9764 165.294H12.967L11.8538 165.578L10.7406 165.01M10.7406 165.01L9.34906 164.443M9.34906 164.443L8.79245 161.038L7.67925 159.619L6.00943 159.903L5.17453 163.875V170.118L5.45283 173.239L6.56604 175.226L7.40094 174.091H8.51415L7.40094 172.104L6.84434 169.267L7.40094 166.713L9.34906 164.443ZM26.3255 161.038L27.4387 157.916M27.9953 161.038L29.1085 160.47M29.1085 160.47L30.5 158.2H28.5519L28.2736 159.335L29.1085 160.47ZM31.3349 157.916H32.4481L32.1698 159.903M32.1698 159.903L31.0566 159.619M32.1698 159.903L30.5 161.605M35.5094 157.916H34.1179L33.5613 159.193M33.5613 159.193L33.0047 160.47L33.8396 161.038L34.9528 160.187L33.5613 159.193ZM45.8066 75.3438L40.2406 76.4788L33.5613 77.3301H26.3255L19.3679 76.4788L15.1123 75.3941M45.8066 75.3438L46.5804 77.7399M45.8066 75.3438L45.8813 74.4925M25.4906 19.4441V6.95885M36.9009 21.7141V17.174L35.7877 6.95885M34.9528 26.2542L36.9009 23.4166M27.9953 24.2679L25.4906 21.7141M27.9953 18.0253L28.8302 13.4852L27.9953 6.95885M32.1698 10.0802V4.1213M32.1698 20.5791L30.2217 16.3228M20.7594 18.0253L22.4292 11.2152L23.2642 6.95885V4.1213M9.34906 94.6391L9.65303 94.7554M51.9292 94.6391L51.7643 94.7022M43.3019 94.3554L42.7453 97.7604L41.0755 100.598L33.8396 106.273H31.3349L30.2217 107.124L29.6651 106.273H27.1604L22.7075 102.868L19.0896 99.1792L17.4198 94.6391V94.3554M43.3019 94.3554L44.6934 93.5041L43.8585 90.9503M43.3019 94.3554H41.6321L41.5277 94.5682M43.8585 90.9503L42.7453 86.9777L39.4057 83.0052L35.7877 80.7351L33.0047 79.0326H31.3349L30.2217 77.8976L29.6651 79.0326L27.1604 79.6001L23.5425 81.5864L21.0377 83.8564L18.2547 86.9777L17.4198 90.9503L16.3066 92.9366L17.4198 94.3554M43.8585 90.9503H42.7453V89.5315L41.6321 88.3965M17.4198 94.3554L19.6462 94.0716V96.0579M17.4198 94.3554V94.9229M24.934 96.3417L25.7689 94.6391L27.717 93.5041L28.2736 96.3417L30.2217 97.7604L32.7264 95.7741V94.0716L34.9528 94.3554M24.934 96.3417L27.1604 98.3279L29.1085 99.1792H31.8915L34.3962 97.7604L36.066 96.0579M24.934 96.3417L24.4121 95.7032M34.9528 94.3554L35.5094 96.0579H36.066M34.9528 94.3554L35.2311 92.9366L35.7877 91.2341L34.3962 89.2478M36.066 96.0579L36.6226 95.7741L37.4576 94.9229L37.7359 95.1357M24.934 89.2478L27.1604 86.9777L29.6651 86.1265H32.7264L34.3962 87.5453L36.066 89.2478M24.934 89.2478L26.0472 89.5315M24.934 89.2478L24.6557 89.4685M36.066 89.2478H34.3962M36.066 89.2478L36.9009 89.5315H38.0142M36.066 89.2478L37.1792 89.5315M34.3962 89.2478H31.3349L30.2217 90.099L29.1085 89.2478L27.1604 88.6803L26.0472 89.5315M26.0472 89.5315L25.2123 91.8016L25.4906 93.2203L26.0472 94.3554M24.3774 96.0579L23.5425 94.6391M23.5425 94.6391L24.4121 95.7032M23.5425 94.6391L23.2443 94.8925M19.6462 96.0579H21.8726L23.2443 94.8925M19.6462 96.0579L20.7594 98.8955L22.7075 101.165L26.3255 103.436H34.9528L38.5708 101.165L40.7972 98.0442L41.5068 94.6675M17.6981 90.3828H19.0896L18.8113 88.964L19.0896 88.9073M24.934 89.5315L24.6557 89.4685M36.6226 89.5315H38.5708M38.5708 89.5315L39.4057 88.3965H41.6321M38.5708 89.5315H38.0142M41.6321 88.3965L40.2406 86.1265L38.0142 83.8564L34.1179 82.1539L30.2217 81.5864L24.934 82.7214L21.5943 84.9915L19.6462 87.7226M38.5708 95.7741C38.5708 95.7741 40.0751 96.564 40.7972 96.0579M38.5708 95.7741L37.7359 95.1357M38.5708 95.7741L40.7972 96.0579M40.7972 96.0579L41.5277 94.5682M40.7972 96.0579C41.2276 95.7562 41.4429 94.9498 41.5068 94.6675M19.3679 88.1128L19.6462 87.7226M41.6321 94.0716L41.5277 94.5682M19.0896 88.964L19.1205 88.901M19.6462 87.829L19.1205 88.901M22.9858 94.3554L21.8726 91.8016L23.2642 89.2478M22.7075 94.0716L23.2443 94.8925M23.2642 94.9229L23.2443 94.8925M24.934 96.0579L24.4121 95.7032M24.0991 95.4904L24.4121 95.7032M37.7359 95.2066V95.1357M38.0142 89.5315L38.8491 90.9503L39.1274 92.0853L38.5708 92.3691L37.7359 93.5041V95.1357M36.9009 95.7741L36.3443 96.0579M22.4292 98.3279L23.2642 97.4767L24.0991 98.5146L22.9858 99.463M23.8208 100.03L24.934 99.1792M25.2123 101.165L26.0472 100.03M26.6038 101.733V100.314H27.717V100.882L26.7796 101.165M27.717 102.017H28.2736V101.165L28.5519 100.882M29.3868 102.017L29.6651 101.733V100.882L30.2217 102.017M32.7264 100.598L33.283 101.733L33.8396 101.165V100.46M34.6745 100.03V101.165H35.5094M35.5094 99.463H36.3443L36.066 100.598M36.6226 98.3279L36.9009 99.1792L37.4576 99.463M37.7359 97.4767V98.3279H38.5708M22.1509 86.9777L23.2642 88.1128M22.9858 86.1265L23.8208 86.4102V87.2615M24.0991 85.2752L24.3774 86.1265L25.408 86.4102M25.408 85.8427V84.9915H24.3774M26.3255 83.8564V85.559L27.1604 85.2752M28.2736 84.7077L27.717 83.5727M28.8302 84.9915L29.1085 83.2889L29.3868 83.5727M30.626 84.7077L29.9434 84.4239V83.2889L30.626 83.0052M31.8915 83.5727H31.3349V84.7077M32.4481 84.7077V83.5727H33.0047M33.5613 85.2752V84.7077L34.3962 83.8564M34.6745 85.2752L34.9528 84.4239H35.5094L35.2311 85.2752H34.9528M36.066 86.4102V85.559L36.9009 84.9915M36.6226 86.9777L37.7359 86.1265M37.7359 87.829L38.0142 87.2615L38.8491 86.9777L38.2925 87.5453M5.73113 145.431L6.00943 129.825L8.51415 115.637L12.1264 101.188M5.73113 145.431H16.5849M12.1321 101.165L12.1264 101.188M16.5849 145.431V135.5C16.5849 135.5 16.8757 129.789 17.1415 126.136C17.416 122.364 17.9764 116.488 17.9764 116.488L19.0622 109.016M16.5849 145.431H21.5943M19.0896 108.827L19.0622 109.016M23.5425 117.907L22.7075 126.136L21.5943 135.5V145.431M23.5425 117.907L25.4906 113.367M23.5425 117.907L25.4906 113.272M45.25 107.124L45.3852 107.4M46.9198 94.0716V90.3828L45.25 85.559L42.467 82.4377L36.9009 78.4651M23.8208 78.4651L19.9245 80.4514L17.1415 83.2889L14.9151 87.5453L14.0802 90.3828V94.0716M16.3066 71.9387L21.0377 73.0737M21.0377 73.0737L27.717 74.2088L34.3962 73.6413L40.397 73.085M21.0377 73.0737L16.0915 71.6729M45.25 71.9387L40.5189 73.0737L40.397 73.085M45.25 71.9387L40.397 73.085M45.25 71.9387L45.8813 74.4925M1.5566 216.937L9.90566 218.356M1.5566 216.937H1M1.5566 216.937H2.11321M9.90566 218.356L15.4717 214.951L22.7075 212.965H39.4057L46.9198 215.802L51.9292 216.937L60 215.802M9.90566 218.356L2.11321 216.937M19.0622 109.016L21.316 109.962L25.4906 113.272M19.0622 109.016L16.5849 107.976L14.0802 104.287L12.1264 101.188M45.3852 107.4L43.8585 108.827L39.1274 109.962L36.066 112.799L31.8915 114.786L26.3255 113.934L25.4906 113.272M45.3852 107.4L47.1981 105.706L48.5896 101.165L53.0842 98.7394M45.3852 107.4L47.7547 112.232L48.5896 118.758L49.4245 125.001L50.2594 132.095L50.816 139.472V145.431M53.0842 98.7394L53.3208 98.6117L46.5804 77.7399M53.0842 98.7394L51.7643 94.7022M8.12661 98.6913L7.95755 98.6117L9.28118 95.6011M8.12661 98.6913L11.5755 100.314L12.1264 101.188M8.12661 98.6913L9.28118 95.6011M9.28118 95.6011L11.0189 90.9503L12.7682 84.3023M9.28118 95.6011L9.65303 94.7554M12.7682 84.3023L11.5755 90.3828L9.65303 94.7554M12.7682 84.3023L15.1123 75.3941M12.7682 84.3023L12.967 83.2889L14.9151 75.3438L15.1123 75.3941M9.65303 94.7554L13.8019 96.3417L16.3066 100.03L17.9764 103.436L20.2028 105.706H24.0991L27.1604 109.678L30.2217 110.813L33.8396 109.678L37.4576 105.706H41.6321L43.8585 102.301L45.8066 97.7604L49.7028 95.4904L51.7643 94.7022M51.7643 94.7022L50.5377 90.9503L46.9198 79.3164L46.5804 77.7399M46.5804 77.7399L45.8813 74.4925M15.1123 75.3941L16.0283 71.655L16.0915 71.6729M15.1123 75.3941L16.0915 71.6729M45.8813 74.4925L44.4151 67.6824L41.6321 54.9134L40.5189 39.3069V22.2816L41.6321 18.0253V8.66138L40.5189 7.52636V2.41877L38.0142 1H21.8726L19.0896 2.41877V8.66138L17.1415 19.1603L20.7594 26.8217V39.3069L19.0896 54.9134L17.1415 67.6824L16.0915 71.6729M21.5943 145.431H50.816M41.5277 94.5682C41.5277 94.5682 41.5269 94.5724 41.5254 94.5805M41.5277 94.5682L41.5254 94.5805M41.5068 94.6675C41.5125 94.6425 41.517 94.6217 41.5203 94.6056M41.5068 94.6675L41.5203 94.6056M19.0896 88.9073L19.6462 87.7226M19.0896 88.9073L19.1205 88.901M24.6557 89.4685L22.4292 88.964L21.5943 88.3965L19.1205 88.901M41.5254 94.5805C41.5241 94.5867 41.5225 94.5951 41.5203 94.6056M41.5254 94.5805L41.5203 94.6056M2.11321 216.937H1M2.11321 216.937L3.22642 217.221M50.2594 172.388L49.4245 170.685L49.7028 168.132L50.2594 166.713L51.3726 166.997L51.6509 168.699V171.253L50.2594 172.388ZM30.7783 102.017V101.038L31.3349 101.449V102.017H30.7783Z" stroke="#934208" stroke-opacity="0.2"/>
<path d="M60 217.221L58.6085 222.329L54.434 226.018L49.4245 227.436L42.1887 228.571H20.7594M60 217.221V207.857M60 217.221V215.802M20.7594 228.571L11.8538 227.436L5.17453 226.018M20.7594 228.571L5.17453 226.018M5.17453 226.018L2.66981 222.329L1 219.208M5.17453 226.018L1 219.208M1 219.208V207.857M1 219.208V216.937M1 207.857L10.7406 209.276L19.9245 209.844H40.2406L44.9717 209.458M1 207.857V202.75M55.2689 208.425L47.1981 209.276L44.9717 209.458M55.2689 208.425L60 207.857M55.2689 208.425L44.9717 209.458M60 207.857V202.75M60 207.857V215.802M60 145.431V131.527L58.6085 118.191L54.434 102.868L53.0842 98.7394M60 145.431V202.75M60 145.431H50.816M60 145.431V151.39M1 145.431V131.527L2.66981 118.191L6.56604 102.868L8.12661 98.6913M1 145.431V202.75M1 145.431H5.73113M1 145.431H21.5943M1 145.431V151.39M1 202.75L9.34906 203.885L13.8019 206.439L20.7594 207.857L28.2736 208.709H32.7264L38.5708 208.425L44.4151 207.29M1 202.75V151.39M1 202.75V155.646M1 202.75V179.766M1 202.75V192.818M1 202.75V198.493M44.4151 207.29L49.7028 205.587L49.7657 205.552M44.4151 207.29L49.7657 205.552M60 202.75L56.9387 203.601L52.7642 203.885L49.7657 205.552M60 202.75V151.39M60 202.75V155.646M60 202.75V179.766M60 202.75V193.953M60 202.75V198.493M1 198.493L9.34906 199.628L13.2453 201.898L17.9764 203.317L23.2642 204.169L29.1085 204.736H34.6745L40.5189 204.169L45.25 203.317L48.5896 201.898L52.4859 199.628L56.9387 199.061M1 198.493V192.818M56.9387 199.061L60 198.493M56.9387 199.061L59.7217 198.493H60M60 198.493V193.953M1 192.818L2.66981 193.386L3.78302 196.223L4.89623 197.075L7.40094 196.223L9.34906 197.075L10.184 197.926H13.8019L14.6368 199.061L15.1934 197.926H16.0283L16.8632 199.061L18.8113 199.628V198.493L21.316 199.061L24.0991 198.493L24.6557 199.628H27.4387L28.5519 198.493L30.2217 201.898L33.0047 199.628H36.9009L37.7359 198.493L39.4057 199.628L42.1887 198.493L42.7453 199.628L44.1368 199.061L45.25 197.926H46.3632V199.061H47.4764L47.7547 197.642H49.7028L51.3726 198.493L52.4859 197.075L54.7123 196.223L56.1038 197.075H57.4953L58.8868 194.521L60 193.953M1 192.818V179.766M60 193.953V179.766M60 179.766H58.8868L58.0519 182.036L57.4953 186.008L55.2689 186.859L53.5991 189.13L53.0425 191.967H50.816L49.7028 191.4L48.033 192.535L45.8066 191.967L44.1368 193.953L41.6321 193.386V192.535H38.8491L38.2925 193.386H36.3443L35.5094 191.967L33.0047 193.386H32.1698L31.6132 191.967L29.1085 193.386L27.9953 191.967H26.0472L25.4906 193.386H23.2642V191.967H20.7594L20.2028 193.386H17.9764L16.0283 191.967H13.8019L11.8538 191.4V192.535L10.184 191.967H9.34906L7.95755 189.13L6.00943 186.859L4.06132 186.292V182.887L3.50472 180.049L1.5566 179.766H1M60 179.766V155.646M1 179.766V155.646M1 155.646H9.34906L13.2453 153.944L17.9764 152.809L23.2642 151.958L33.8396 151.39L39.4057 151.958L45.25 152.809L49.7028 154.511L52.2076 155.93L60 155.646M1 155.646V151.39M60 155.646V151.39M60 151.39H53.0425L49.7028 149.404L45.25 148.269L40.5189 147.418L36.3443 146.85H27.4387L23.2642 147.418L17.9764 148.269L13.2453 149.404L10.184 150.539L7.95755 151.39H1M8 178L4.89623 176.644L3.50472 172.955V164.443L4.06132 159.903L6.00943 157.916H8.79245L10.184 159.335L11.2972 157.916L11.8538 159.051L11.2972 161.605L10.7406 165.01M8 178L13.8019 176.077V178.631H20.4811L21.5943 181.184L22.9858 178.347L25.2123 178.631H29.9434L30.2217 180.049L31.3349 178.631H33.283L34.1179 179.766H35.2311L35.5094 178.347H40.5189V179.766L41.0755 179.482L42.1887 178.347H44.6934M8 178L7.40094 184.306L9 182L11.5 185L14.5 182L16.0283 184.306L16.8632 183.454V184.306H20.2028V182.036L20.7594 184.306H21.8726L22.4292 181.468V184.306H26.8821V180.049H27.9953V184.589H33.0047V184.022H33.5613V184.589H37.7359L37.4576 181.752H38.5708V184.873H40.5189L40.7972 183.738L41.9104 184.589H43.8585L44.6934 183.738M8 178L11.5 173.5L9.34906 168.699L15.1934 169.267L13.2453 171.82L17.1415 174.374L19.0896 172.672L19.6462 172.388L21.8726 174.091H24.6557L26.3255 172.672V171.82H25.2123L24.0991 172.955L22.4292 172.672L22.1509 170.402L26.6038 170.118L26.8821 168.699H27.9953L28.5519 166.713L29.1085 166.997V172.955H28.2736V174.374H32.1698V172.955H31.3349V167.28H32.1698L33.0047 169.267H33.8396L34.1179 172.104L36.066 174.091L39.1274 174.374L40.5189 172.955M44.6934 183.738L44.9717 184.589H46.9198V183.738L47.1981 182.887L48.033 184.589H51.6509L52.4859 183.454H53.0425L53.8774 184.306H55.2689L55.8255 183.171V182.036H54.9906V182.887H54.1557V181.468H55.8255V179.198L54.9906 178.063L53.0425 178.631L52.4859 179.198L51.3726 178.063H49.7028L47.4764 178.347V179.766H46.6415V178.347H44.6934M44.6934 183.738V183.171L43.8585 182.319L43.3019 183.454H42.1887V180.617L42.7453 179.482L43.3019 180.333L44.6934 180.901V178.347M40.5189 172.955H41.0755V174.658L44.4151 174.374V173.239L43.8585 170.969H44.4151L46.0849 174.091H51.6509L53.0425 172.388H54.1557L55.2689 173.807H56.6604L57.7736 172.388V170.969L56.6604 171.253V172.388H55.8255L55.2689 169.834H57.4953V166.145L56.3821 165.01H45.5283L45.25 166.429L44.6934 167.28L44.4151 165.01H41.0755M40.5189 172.955V171.253L38.5708 172.955L36.3443 170.969L36.6226 167.848L38.2925 166.997L39.1274 168.699H40.7972L41.0755 165.01M41.0755 165.01L36.066 165.294L34.6745 167.28L33.8396 165.294H26.8821L26.6038 166.997L24.6557 165.294L21.316 165.578L19.3679 167.28L17.9764 165.294H12.967L11.8538 165.578L10.7406 165.01M10.7406 165.01L9.34906 164.443M9.34906 164.443L8.79245 161.038L7.67925 159.619L6.00943 159.903L5.17453 163.875V170.118L5.45283 173.239L6.56604 175.226L7.40094 174.091H8.51415L7.40094 172.104L6.84434 169.267L7.40094 166.713L9.34906 164.443ZM26.3255 161.038L27.4387 157.916M27.9953 161.038L29.1085 160.47M29.1085 160.47L30.5 158.2H28.5519L28.2736 159.335L29.1085 160.47ZM31.3349 157.916H32.4481L32.1698 159.903M32.1698 159.903L31.0566 159.619M32.1698 159.903L30.5 161.605M35.5094 157.916H34.1179L33.5613 159.193M33.5613 159.193L33.0047 160.47L33.8396 161.038L34.9528 160.187L33.5613 159.193ZM45.8066 75.3438L40.2406 76.4788L33.5613 77.3301H26.3255L19.3679 76.4788L15.1123 75.3941M45.8066 75.3438L46.5804 77.7399M45.8066 75.3438L45.8813 74.4925M25.4906 19.4441V6.95885M36.9009 21.7141V17.174L35.7877 6.95885M34.9528 26.2542L36.9009 23.4166M27.9953 24.2679L25.4906 21.7141M27.9953 18.0253L28.8302 13.4852L27.9953 6.95885M32.1698 10.0802V4.1213M32.1698 20.5791L30.2217 16.3228M20.7594 18.0253L22.4292 11.2152L23.2642 6.95885V4.1213M9.34906 94.6391L9.65303 94.7554M51.9292 94.6391L51.7643 94.7022M43.3019 94.3554L42.7453 97.7604L41.0755 100.598L33.8396 106.273H31.3349L30.2217 107.124L29.6651 106.273H27.1604L22.7075 102.868L19.0896 99.1792L17.4198 94.6391V94.3554M43.3019 94.3554L44.6934 93.5041L43.8585 90.9503M43.3019 94.3554H41.6321L41.5277 94.5682M43.8585 90.9503L42.7453 86.9777L39.4057 83.0052L35.7877 80.7351L33.0047 79.0326H31.3349L30.2217 77.8976L29.6651 79.0326L27.1604 79.6001L23.5425 81.5864L21.0377 83.8564L18.2547 86.9777L17.4198 90.9503L16.3066 92.9366L17.4198 94.3554M43.8585 90.9503H42.7453V89.5315L41.6321 88.3965M17.4198 94.3554L19.6462 94.0716V96.0579M17.4198 94.3554V94.9229M24.934 96.3417L25.7689 94.6391L27.717 93.5041L28.2736 96.3417L30.2217 97.7604L32.7264 95.7741V94.0716L34.9528 94.3554M24.934 96.3417L27.1604 98.3279L29.1085 99.1792H31.8915L34.3962 97.7604L36.066 96.0579M24.934 96.3417L24.4121 95.7032M34.9528 94.3554L35.5094 96.0579H36.066M34.9528 94.3554L35.2311 92.9366L35.7877 91.2341L34.3962 89.2478M36.066 96.0579L36.6226 95.7741L37.4576 94.9229L37.7359 95.1357M24.934 89.2478L27.1604 86.9777L29.6651 86.1265H32.7264L34.3962 87.5453L36.066 89.2478M24.934 89.2478L26.0472 89.5315M24.934 89.2478L24.6557 89.4685M36.066 89.2478H34.3962M36.066 89.2478L36.9009 89.5315H38.0142M36.066 89.2478L37.1792 89.5315M34.3962 89.2478H31.3349L30.2217 90.099L29.1085 89.2478L27.1604 88.6803L26.0472 89.5315M26.0472 89.5315L25.2123 91.8016L25.4906 93.2203L26.0472 94.3554M24.3774 96.0579L23.5425 94.6391M23.5425 94.6391L24.4121 95.7032M23.5425 94.6391L23.2443 94.8925M19.6462 96.0579H21.8726L23.2443 94.8925M19.6462 96.0579L20.7594 98.8955L22.7075 101.165L26.3255 103.436H34.9528L38.5708 101.165L40.7972 98.0442L41.5068 94.6675M17.6981 90.3828H19.0896L18.8113 88.964L19.0896 88.9073M24.934 89.5315L24.6557 89.4685M36.6226 89.5315H38.5708M38.5708 89.5315L39.4057 88.3965H41.6321M38.5708 89.5315H38.0142M41.6321 88.3965L40.2406 86.1265L38.0142 83.8564L34.1179 82.1539L30.2217 81.5864L24.934 82.7214L21.5943 84.9915L19.6462 87.7226M38.5708 95.7741C38.5708 95.7741 40.0751 96.564 40.7972 96.0579M38.5708 95.7741L37.7359 95.1357M38.5708 95.7741L40.7972 96.0579M40.7972 96.0579L41.5277 94.5682M40.7972 96.0579C41.2276 95.7562 41.4429 94.9498 41.5068 94.6675M19.3679 88.1128L19.6462 87.7226M41.6321 94.0716L41.5277 94.5682M19.0896 88.964L19.1205 88.901M19.6462 87.829L19.1205 88.901M22.9858 94.3554L21.8726 91.8016L23.2642 89.2478M22.7075 94.0716L23.2443 94.8925M23.2642 94.9229L23.2443 94.8925M24.934 96.0579L24.4121 95.7032M24.0991 95.4904L24.4121 95.7032M37.7359 95.2066V95.1357M38.0142 89.5315L38.8491 90.9503L39.1274 92.0853L38.5708 92.3691L37.7359 93.5041V95.1357M36.9009 95.7741L36.3443 96.0579M22.4292 98.3279L23.2642 97.4767L24.0991 98.5146L22.9858 99.463M23.8208 100.03L24.934 99.1792M25.2123 101.165L26.0472 100.03M26.6038 101.733V100.314H27.717V100.882L26.7796 101.165M27.717 102.017H28.2736V101.165L28.5519 100.882M29.3868 102.017L29.6651 101.733V100.882L30.2217 102.017M32.7264 100.598L33.283 101.733L33.8396 101.165V100.46M34.6745 100.03V101.165H35.5094M35.5094 99.463H36.3443L36.066 100.598M36.6226 98.3279L36.9009 99.1792L37.4576 99.463M37.7359 97.4767V98.3279H38.5708M22.1509 86.9777L23.2642 88.1128M22.9858 86.1265L23.8208 86.4102V87.2615M24.0991 85.2752L24.3774 86.1265L25.408 86.4102M25.408 85.8427V84.9915H24.3774M26.3255 83.8564V85.559L27.1604 85.2752M28.2736 84.7077L27.717 83.5727M28.8302 84.9915L29.1085 83.2889L29.3868 83.5727M30.626 84.7077L29.9434 84.4239V83.2889L30.626 83.0052M31.8915 83.5727H31.3349V84.7077M32.4481 84.7077V83.5727H33.0047M33.5613 85.2752V84.7077L34.3962 83.8564M34.6745 85.2752L34.9528 84.4239H35.5094L35.2311 85.2752H34.9528M36.066 86.4102V85.559L36.9009 84.9915M36.6226 86.9777L37.7359 86.1265M37.7359 87.829L38.0142 87.2615L38.8491 86.9777L38.2925 87.5453M5.73113 145.431L6.00943 129.825L8.51415 115.637L12.1264 101.188M5.73113 145.431H16.5849M12.1321 101.165L12.1264 101.188M16.5849 145.431V135.5C16.5849 135.5 16.8757 129.789 17.1415 126.136C17.416 122.364 17.9764 116.488 17.9764 116.488L19.0622 109.016M16.5849 145.431H21.5943M19.0896 108.827L19.0622 109.016M23.5425 117.907L22.7075 126.136L21.5943 135.5V145.431M23.5425 117.907L25.4906 113.367M23.5425 117.907L25.4906 113.272M45.25 107.124L45.3852 107.4M46.9198 94.0716V90.3828L45.25 85.559L42.467 82.4377L36.9009 78.4651M23.8208 78.4651L19.9245 80.4514L17.1415 83.2889L14.9151 87.5453L14.0802 90.3828V94.0716M16.3066 71.9387L21.0377 73.0737M21.0377 73.0737L27.717 74.2088L34.3962 73.6413L40.397 73.085M21.0377 73.0737L16.0915 71.6729M45.25 71.9387L40.5189 73.0737L40.397 73.085M45.25 71.9387L40.397 73.085M45.25 71.9387L45.8813 74.4925M1.5566 216.937L9.90566 218.356M1.5566 216.937H1M1.5566 216.937H2.11321M9.90566 218.356L15.4717 214.951L22.7075 212.965H39.4057L46.9198 215.802L51.9292 216.937L60 215.802M9.90566 218.356L2.11321 216.937M19.0622 109.016L21.316 109.962L25.4906 113.272M19.0622 109.016L16.5849 107.976L14.0802 104.287L12.1264 101.188M45.3852 107.4L43.8585 108.827L39.1274 109.962L36.066 112.799L31.8915 114.786L26.3255 113.934L25.4906 113.272M45.3852 107.4L47.1981 105.706L48.5896 101.165L53.0842 98.7394M45.3852 107.4L47.7547 112.232L48.5896 118.758L49.4245 125.001L50.2594 132.095L50.816 139.472V145.431M53.0842 98.7394L53.3208 98.6117L46.5804 77.7399M53.0842 98.7394L51.7643 94.7022M8.12661 98.6913L7.95755 98.6117L9.28118 95.6011M8.12661 98.6913L11.5755 100.314L12.1264 101.188M8.12661 98.6913L9.28118 95.6011M9.28118 95.6011L11.0189 90.9503L12.7682 84.3023M9.28118 95.6011L9.65303 94.7554M12.7682 84.3023L11.5755 90.3828L9.65303 94.7554M12.7682 84.3023L15.1123 75.3941M12.7682 84.3023L12.967 83.2889L14.9151 75.3438L15.1123 75.3941M9.65303 94.7554L13.8019 96.3417L16.3066 100.03L17.9764 103.436L20.2028 105.706H24.0991L27.1604 109.678L30.2217 110.813L33.8396 109.678L37.4576 105.706H41.6321L43.8585 102.301L45.8066 97.7604L49.7028 95.4904L51.7643 94.7022M51.7643 94.7022L50.5377 90.9503L46.9198 79.3164L46.5804 77.7399M46.5804 77.7399L45.8813 74.4925M15.1123 75.3941L16.0283 71.655L16.0915 71.6729M15.1123 75.3941L16.0915 71.6729M45.8813 74.4925L44.4151 67.6824L41.6321 54.9134L40.5189 39.3069V22.2816L41.6321 18.0253V8.66138L40.5189 7.52636V2.41877L38.0142 1H21.8726L19.0896 2.41877V8.66138L17.1415 19.1603L20.7594 26.8217V39.3069L19.0896 54.9134L17.1415 67.6824L16.0915 71.6729M21.5943 145.431H50.816M41.5277 94.5682C41.5277 94.5682 41.5269 94.5724 41.5254 94.5805M41.5277 94.5682L41.5254 94.5805M41.5068 94.6675C41.5125 94.6425 41.517 94.6217 41.5203 94.6056M41.5068 94.6675L41.5203 94.6056M19.0896 88.9073L19.6462 87.7226M19.0896 88.9073L19.1205 88.901M24.6557 89.4685L22.4292 88.964L21.5943 88.3965L19.1205 88.901M41.5254 94.5805C41.5241 94.5867 41.5225 94.5951 41.5203 94.6056M41.5254 94.5805L41.5203 94.6056M2.11321 216.937H1M2.11321 216.937L3.22642 217.221M50.2594 172.388L49.4245 170.685L49.7028 168.132L50.2594 166.713L51.3726 166.997L51.6509 168.699V171.253L50.2594 172.388ZM30.7783 102.017V101.038L31.3349 101.449V102.017H30.7783Z" stroke="black" stroke-opacity="0.2"/>
</svg>
